<svg width="350" height="192" viewBox="0 0 350 192" fill="none" xmlns="http://www.w3.org/2000/svg">
<g clip-path="url(#clip0_41_3)">
<path d="M47.0656 99.7362H35.8645C35.4706 99.7362 35.0929 99.8927 34.8144 100.171C34.5359 100.45 34.3795 100.827 34.3795 101.221V106.138C34.3795 106.532 34.5359 106.909 34.8144 107.188C35.0929 107.466 35.4706 107.623 35.8645 107.623H37.7207V114.989H45.2094V107.623H47.0656C47.4595 107.623 47.8372 107.466 48.1157 107.188C48.3942 106.909 48.5507 106.532 48.5507 106.138V101.221C48.5507 100.827 48.3942 100.45 48.1157 100.171C47.8372 99.8927 47.4595 99.7362 47.0656 99.7362Z" fill="#E77C07"/>
<path d="M58.2847 144.732C51.4248 134.694 47.9179 122.743 48.2664 110.59C48.2726 110.309 48.1816 110.035 48.0088 109.814C47.836 109.593 47.592 109.439 47.3184 109.378V107.253H35.4885V109.348H35.3255C35.1586 109.348 34.9936 109.383 34.8408 109.45C34.6879 109.517 34.5504 109.614 34.437 109.737C34.3235 109.859 34.2365 110.003 34.1814 110.161C34.1263 110.318 34.1042 110.485 34.1166 110.652C35.0485 123.643 31.9015 135.294 24.6754 145.603C24.2596 146.196 24.0471 146.907 24.07 147.631L25.3635 187.643C25.3946 188.536 25.7692 189.382 26.4091 190.005C27.0489 190.628 27.9047 190.979 28.7977 190.987H55.5551C56.4582 190.979 57.3229 190.619 57.9647 189.984C58.6066 189.348 58.9749 188.488 58.9913 187.584L59.4898 148.735C59.5045 147.309 59.0842 145.913 58.2847 144.732Z" fill="#3F3D56"/>
<path opacity="0.2" d="M44.7305 101.338C44.7305 102.188 44.393 103.003 43.7921 103.604C43.1913 104.205 42.3764 104.542 41.5266 104.542C40.6769 104.542 39.862 104.205 39.2611 103.604C38.6602 103.003 38.3227 102.188 38.3227 101.338" fill="black"/>
<path d="M54.0489 158.023H50.8088C50.4995 156.016 49.482 154.186 47.9404 152.863C46.3988 151.541 44.4349 150.814 42.4039 150.814C40.373 150.814 38.4091 151.541 36.8675 152.863C35.3259 154.186 34.3084 156.016 33.999 158.023H30.7587C30.414 158.023 30.0733 158.098 29.76 158.242C29.4468 158.386 29.1684 158.596 28.9439 158.857C28.7194 159.119 28.5542 159.426 28.4595 159.758C28.3648 160.089 28.3429 160.437 28.3954 160.778L31.9148 183.654H52.1242L56.3991 160.855C56.4639 160.51 56.4517 160.154 56.3636 159.814C56.2754 159.474 56.1133 159.157 55.889 158.887C55.6646 158.617 55.3834 158.399 55.0653 158.25C54.7473 158.1 54.4003 158.023 54.0489 158.023Z" fill="#E77C07"/>
<path d="M326.332 121.252L325.555 152.316L324.593 190.837H291.83L290.702 145.705L290.09 121.252H326.332Z" fill="#E6E6E6"/>
<path d="M310.386 104.726H305.747V166.192H310.386V104.726Z" fill="#E77C07"/>
<path d="M324.013 144.659L323.135 188.811H293.272L292.244 137.082C294.935 136.326 297.752 136.133 300.521 136.513C303.289 136.894 305.949 137.841 308.336 139.295C313.326 142.246 318.931 143.835 324.013 144.659Z" fill="#3F3D56"/>
<path d="M300.665 149.629H296.409V153.886H300.665V149.629Z" fill="#E6E6E6"/>
<path d="M303.565 140.931H299.308V145.188H303.565V140.931Z" fill="#E6E6E6"/>
<path d="M312.705 146.952L309.286 144.417L306.75 147.836L310.17 150.372L312.705 146.952Z" fill="#E6E6E6"/>
<path d="M320.396 154.495L316.977 151.959L314.441 155.378L317.86 157.914L320.396 154.495Z" fill="#E6E6E6"/>
<path d="M307.349 158.844L303.93 156.308L301.394 159.727L304.813 162.263L307.349 158.844Z" fill="#E6E6E6"/>
<path d="M317.344 139.228C317.825 139.228 318.214 138.839 318.214 138.358C318.214 137.878 317.825 137.489 317.344 137.489C316.864 137.489 316.474 137.878 316.474 138.358C316.474 138.839 316.864 139.228 317.344 139.228Z" fill="#3F3D56"/>
<path d="M299.658 133.429C300.138 133.429 300.528 133.04 300.528 132.56C300.528 132.079 300.138 131.69 299.658 131.69C299.178 131.69 298.788 132.079 298.788 132.56C298.788 133.04 299.178 133.429 299.658 133.429Z" fill="#3F3D56"/>
<path d="M314.445 127.341C314.925 127.341 315.315 126.951 315.315 126.471C315.315 125.991 314.925 125.601 314.445 125.601C313.964 125.601 313.575 125.991 313.575 126.471C313.575 126.951 313.964 127.341 314.445 127.341Z" fill="#3F3D56"/>
<path d="M175.2 190.572C227.825 190.572 270.486 147.911 270.486 95.2859C270.486 42.661 227.825 0 175.2 0C122.575 0 79.9143 42.661 79.9143 95.2859C79.9143 147.911 122.575 190.572 175.2 190.572Z" fill="#E77C07"/>
<path opacity="0.2" d="M175.2 164.835C159.11 164.835 143.517 159.256 131.079 149.048C118.641 138.841 110.127 124.636 106.988 108.854C103.849 93.0731 106.279 76.6915 113.864 62.5009C121.449 48.3104 133.72 37.1889 148.586 31.0313C163.451 24.8738 179.992 24.0613 195.39 28.7321C210.788 33.403 224.089 43.2683 233.029 56.6471C241.968 70.0259 245.992 86.0904 244.415 102.103C242.838 118.117 235.757 133.087 224.379 144.465C217.936 150.944 210.272 156.08 201.83 159.576C193.389 163.073 184.337 164.86 175.2 164.835ZM175.2 30.0258C139.216 30.0258 109.94 59.3013 109.94 95.2859C109.94 131.27 139.216 160.546 175.2 160.546C211.185 160.546 240.46 131.27 240.46 95.2859C240.46 59.3013 211.185 30.0258 175.2 30.0258Z" fill="black"/>
<path d="M175.2 162.691C212.427 162.691 242.605 132.513 242.605 95.2859C242.605 58.0593 212.427 27.8811 175.2 27.8811C137.974 27.8811 107.795 58.0593 107.795 95.2859C107.795 132.513 137.974 162.691 175.2 162.691Z" fill="#3F3D56"/>
<path d="M125.073 68.3335C124.562 67.3323 124.253 66.2402 124.164 65.1196C124.075 63.9989 124.208 62.8718 124.555 61.8025C124.902 60.7333 125.456 59.7429 126.187 58.8881C126.917 58.0332 127.808 57.3307 128.81 56.8206C129.811 56.3104 130.904 56.0027 132.025 55.9151C133.145 55.8274 134.272 55.9615 135.341 56.3097C136.41 56.6579 137.4 57.2133 138.254 57.9443C139.108 58.6752 139.81 59.5673 140.319 60.5696L159.362 97.9654C159.873 98.9666 160.182 100.059 160.271 101.179C160.36 102.3 160.227 103.427 159.88 104.496C159.533 105.566 158.979 106.556 158.249 107.411C157.519 108.266 156.627 108.968 155.625 109.478C154.624 109.988 153.531 110.296 152.41 110.384C151.29 110.471 150.163 110.337 149.094 109.989C148.025 109.641 147.035 109.086 146.181 108.355C145.327 107.624 144.625 106.732 144.116 105.729L125.073 68.3335Z" fill="#FF6584"/>
<path opacity="0.2" d="M127.197 72.5047L126.318 70.7787C130.704 67.3704 135.855 64.8638 141.564 63.0148L142.443 64.7407C136.264 66.0273 131.008 68.4083 127.197 72.5047Z" fill="black"/>
<path opacity="0.2" d="M131.299 80.5591L130.42 78.8331C134.806 75.4248 139.957 72.9182 145.666 71.0692L146.544 72.7952C140.366 74.0818 135.11 76.4628 131.299 80.5591Z" fill="black"/>
<path opacity="0.2" d="M135.4 88.6135L134.521 86.8876C138.908 83.4793 144.059 80.9727 149.767 79.1237L150.646 80.8496C144.468 82.1362 139.211 84.5172 135.4 88.6135Z" fill="black"/>
<path opacity="0.2" d="M139.502 96.668L138.623 94.942C143.009 91.5337 148.16 89.0271 153.869 87.1781L154.748 88.9041C148.57 90.1907 143.313 92.5716 139.502 96.668Z" fill="black"/>
<path opacity="0.2" d="M143.604 104.722L142.725 102.996C147.111 99.5882 152.262 97.0815 157.971 95.2325L158.85 96.9585C152.671 98.2451 147.415 100.626 143.604 104.722Z" fill="black"/>
<path d="M110.786 82.3331C110.275 81.3319 109.966 80.2398 109.877 79.1193C109.788 77.9987 109.921 76.8716 110.268 75.8025C110.616 74.7333 111.17 73.7431 111.9 72.8883C112.63 72.0335 113.521 71.331 114.523 70.8209C115.525 70.3108 116.617 70.0031 117.738 69.9155C118.858 69.8278 119.985 69.9618 121.054 70.3099C122.123 70.658 123.113 71.2134 123.967 71.9442C124.821 72.675 125.522 73.567 126.032 74.5692L145.075 111.965C146.102 113.986 146.284 116.333 145.582 118.488C144.88 120.644 143.35 122.433 141.33 123.462C139.31 124.491 136.964 124.675 134.807 123.975C132.651 123.276 130.86 121.748 129.829 119.729L110.786 82.3331Z" fill="#FF6584"/>
<path opacity="0.2" d="M112.91 86.5042L112.031 84.7782C116.417 81.3699 121.568 78.8633 127.277 77.0143L128.156 78.7402C121.977 80.0268 116.721 82.4078 112.91 86.5042Z" fill="black"/>
<path opacity="0.2" d="M117.011 94.5587L116.133 92.8328C120.519 89.4245 125.67 86.9179 131.378 85.0688L132.257 86.7948C126.079 88.0814 120.823 90.4624 117.011 94.5587Z" fill="black"/>
<path opacity="0.2" d="M121.113 102.613L120.234 100.887C124.621 97.4789 129.772 94.9723 135.48 93.1233L136.359 94.8492C130.181 96.1358 124.924 98.5169 121.113 102.613Z" fill="black"/>
<path opacity="0.2" d="M125.215 110.668L124.336 108.942C128.722 105.533 133.873 103.027 139.582 101.178L140.461 102.904C134.282 104.19 129.026 106.571 125.215 110.668Z" fill="black"/>
<path opacity="0.2" d="M129.317 118.722L128.438 116.996C132.824 113.588 137.975 111.081 143.684 109.232L144.563 110.958C138.384 112.245 133.128 114.626 129.317 118.722Z" fill="black"/>
<path d="M220.239 97.4307L220.299 97.4307C222.35 97.4479 224.359 96.8465 226.063 95.705C227.768 94.5634 229.088 92.9347 229.853 91.0313C231.426 87.0557 232.218 82.8146 232.187 78.5393C232.08 60.4439 217.359 45.5987 199.265 45.3484C191.559 45.2405 184.053 47.8006 178.019 52.5948C171.985 57.3889 167.795 64.1221 166.158 71.6529C164.521 79.1838 165.539 87.0489 169.039 93.915C172.539 100.781 178.305 106.226 185.361 109.326C187.225 110.151 189.296 110.394 191.301 110.022C193.306 109.651 195.151 108.682 196.596 107.243C199.694 104.128 203.379 101.657 207.437 99.9732C211.494 98.2891 215.846 97.425 220.239 97.4307Z" fill="#E6E6E6"/>
<path d="M203.081 87.3199C209.173 87.3199 214.111 82.3817 214.111 76.29C214.111 70.1984 209.173 65.2601 203.081 65.2601C196.99 65.2601 192.051 70.1984 192.051 76.29C192.051 82.3817 196.99 87.3199 203.081 87.3199Z" fill="#F9A825"/>
<path d="M179.109 75.0497C179.827 75.0497 180.409 74.4679 180.409 73.7503C180.409 73.0327 179.827 72.4509 179.109 72.4509C178.392 72.4509 177.81 73.0327 177.81 73.7503C177.81 74.4679 178.392 75.0497 179.109 75.0497Z" fill="#3F3D56"/>
<path d="M136.215 76.2753C136.933 76.2753 137.515 75.6935 137.515 74.9759C137.515 74.2583 136.933 73.6765 136.215 73.6765C135.498 73.6765 134.916 74.2583 134.916 74.9759C134.916 75.6935 135.498 76.2753 136.215 76.2753Z" fill="#3F3D56"/>
<path d="M186.034 61.5835C186.752 61.5835 187.334 61.0017 187.334 60.2841C187.334 59.5665 186.752 58.9847 186.034 58.9847C185.317 58.9847 184.735 59.5665 184.735 60.2841C184.735 61.0017 185.317 61.5835 186.034 61.5835Z" fill="#3F3D56"/>
<path d="M185.998 99.0364C186.715 99.0364 187.297 98.4546 187.297 97.737C187.297 97.0194 186.715 96.4376 185.998 96.4376C185.28 96.4376 184.698 97.0194 184.698 97.737C184.698 98.4546 185.28 99.0364 185.998 99.0364Z" fill="#3F3D56"/>
<path d="M211.734 58.8999C212.452 58.8999 213.033 58.3181 213.033 57.6005C213.033 56.8829 212.452 56.3011 211.734 56.3011C211.016 56.3011 210.435 56.8829 210.435 57.6005C210.435 58.3181 211.016 58.8999 211.734 58.8999Z" fill="#3F3D56"/>
<path d="M127.784 94.4407C128.502 94.4407 129.084 93.8589 129.084 93.1413C129.084 92.4237 128.502 91.8419 127.784 91.8419C127.067 91.8419 126.485 92.4237 126.485 93.1413C126.485 93.8589 127.067 94.4407 127.784 94.4407Z" fill="#3F3D56"/>
<path d="M137.282 113.13C138 113.13 138.582 112.548 138.582 111.831C138.582 111.113 138 110.531 137.282 110.531C136.565 110.531 135.983 111.113 135.983 111.831C135.983 112.548 136.565 113.13 137.282 113.13Z" fill="#3F3D56"/>
<path d="M196.954 119.184C199.661 119.184 201.856 116.989 201.856 114.282C201.856 111.574 199.661 109.38 196.954 109.38C194.246 109.38 192.051 111.574 192.051 114.282C192.051 116.989 194.246 119.184 196.954 119.184Z" fill="#FF6584"/>
<path opacity="0.2" d="M200.63 114.588C200.63 115.563 200.243 116.499 199.553 117.188C198.864 117.878 197.929 118.265 196.954 118.265C195.979 118.265 195.043 117.878 194.354 117.188C193.664 116.499 193.277 115.563 193.277 114.588" fill="black"/>
<path opacity="0.2" d="M193.277 113.975C193.277 113 193.664 112.065 194.354 111.376C195.043 110.686 195.979 110.299 196.954 110.299C197.929 110.299 198.864 110.686 199.553 111.376C200.243 112.065 200.63 113 200.63 113.975" fill="black"/>
<path d="M195.115 113.056C195.285 113.056 195.422 112.851 195.422 112.597C195.422 112.343 195.285 112.137 195.115 112.137C194.946 112.137 194.809 112.343 194.809 112.597C194.809 112.851 194.946 113.056 195.115 113.056Z" fill="#FF6584"/>
<path d="M196.954 112.444C197.123 112.444 197.26 112.238 197.26 111.984C197.26 111.73 197.123 111.524 196.954 111.524C196.784 111.524 196.647 111.73 196.647 111.984C196.647 112.238 196.784 112.444 196.954 112.444Z" fill="#FF6584"/>
<path d="M196.954 116.426C197.123 116.426 197.26 116.221 197.26 115.967C197.26 115.713 197.123 115.507 196.954 115.507C196.784 115.507 196.647 115.713 196.647 115.967C196.647 116.221 196.784 116.426 196.954 116.426Z" fill="#FF6584"/>
<path d="M198.792 113.975C198.961 113.975 199.098 113.77 199.098 113.516C199.098 113.262 198.961 113.056 198.792 113.056C198.623 113.056 198.486 113.262 198.486 113.516C198.486 113.77 198.623 113.975 198.792 113.975Z" fill="#FF6584"/>
<path d="M198.486 117.346C198.655 117.346 198.792 117.14 198.792 116.886C198.792 116.632 198.655 116.427 198.486 116.427C198.316 116.427 198.179 116.632 198.179 116.886C198.179 117.14 198.316 117.346 198.486 117.346Z" fill="#FF6584"/>
<path d="M194.809 115.814C194.978 115.814 195.115 115.608 195.115 115.354C195.115 115.1 194.978 114.895 194.809 114.895C194.64 114.895 194.503 115.1 194.503 115.354C194.503 115.608 194.64 115.814 194.809 115.814Z" fill="#FF6584"/>
<path d="M206.758 106.009C209.465 106.009 211.66 103.815 211.66 101.107C211.66 98.3999 209.465 96.2051 206.758 96.2051C204.051 96.2051 201.856 98.3999 201.856 101.107C201.856 103.815 204.051 106.009 206.758 106.009Z" fill="#FF6584"/>
<path opacity="0.2" d="M210.435 101.414C210.435 102.389 210.047 103.324 209.358 104.013C208.668 104.703 207.733 105.09 206.758 105.09C205.783 105.09 204.848 104.703 204.158 104.013C203.469 103.324 203.081 102.389 203.081 101.414" fill="black"/>
<path opacity="0.2" d="M203.081 100.801C203.081 99.8258 203.469 98.8906 204.158 98.2011C204.848 97.5116 205.783 97.1243 206.758 97.1243C207.733 97.1243 208.668 97.5116 209.358 98.2011C210.047 98.8906 210.435 99.8258 210.435 100.801" fill="black"/>
<path d="M204.92 99.8817C205.089 99.8817 205.226 99.6759 205.226 99.4221C205.226 99.1683 205.089 98.9625 204.92 98.9625C204.75 98.9625 204.613 99.1683 204.613 99.4221C204.613 99.6759 204.75 99.8817 204.92 99.8817Z" fill="#FF6584"/>
<path d="M206.758 99.269C206.927 99.269 207.064 99.0633 207.064 98.8094C207.064 98.5556 206.927 98.3499 206.758 98.3499C206.589 98.3499 206.452 98.5556 206.452 98.8094C206.452 99.0633 206.589 99.269 206.758 99.269Z" fill="#FF6584"/>
<path d="M206.758 103.252C206.927 103.252 207.064 103.046 207.064 102.792C207.064 102.539 206.927 102.333 206.758 102.333C206.589 102.333 206.452 102.539 206.452 102.792C206.452 103.046 206.589 103.252 206.758 103.252Z" fill="#FF6584"/>
<path d="M208.596 100.801C208.766 100.801 208.903 100.595 208.903 100.341C208.903 100.087 208.766 99.8817 208.596 99.8817C208.427 99.8817 208.29 100.087 208.29 100.341C208.29 100.595 208.427 100.801 208.596 100.801Z" fill="#FF6584"/>
<path d="M208.29 104.171C208.459 104.171 208.596 103.965 208.596 103.712C208.596 103.458 208.459 103.252 208.29 103.252C208.121 103.252 207.984 103.458 207.984 103.712C207.984 103.965 208.121 104.171 208.29 104.171Z" fill="#FF6584"/>
<path d="M204.613 102.639C204.782 102.639 204.92 102.433 204.92 102.18C204.92 101.926 204.782 101.72 204.613 101.72C204.444 101.72 204.307 101.926 204.307 102.18C204.307 102.433 204.444 102.639 204.613 102.639Z" fill="#FF6584"/>
<path d="M216.562 112.75C219.27 112.75 221.464 110.555 221.464 107.848C221.464 105.14 219.27 102.946 216.562 102.946C213.855 102.946 211.66 105.14 211.66 107.848C211.66 110.555 213.855 112.75 216.562 112.75Z" fill="#E77C07"/>
<path opacity="0.2" d="M220.239 108.154C220.239 109.129 219.852 110.064 219.162 110.754C218.473 111.443 217.537 111.831 216.562 111.831C215.587 111.831 214.652 111.443 213.963 110.754C213.273 110.064 212.886 109.129 212.886 108.154" fill="black"/>
<path opacity="0.2" d="M212.886 107.541C212.886 106.566 213.273 105.631 213.963 104.942C214.652 104.252 215.587 103.865 216.562 103.865C217.537 103.865 218.473 104.252 219.162 104.942C219.852 105.631 220.239 106.566 220.239 107.541" fill="black"/>
<path d="M214.724 106.622C214.893 106.622 215.03 106.416 215.03 106.163C215.03 105.909 214.893 105.703 214.724 105.703C214.555 105.703 214.418 105.909 214.418 106.163C214.418 106.416 214.555 106.622 214.724 106.622Z" fill="#E77C07"/>
<path d="M216.562 106.009C216.732 106.009 216.869 105.804 216.869 105.55C216.869 105.296 216.732 105.09 216.562 105.09C216.393 105.09 216.256 105.296 216.256 105.55C216.256 105.804 216.393 106.009 216.562 106.009Z" fill="#E77C07"/>
<path d="M216.562 109.992C216.732 109.992 216.869 109.787 216.869 109.533C216.869 109.279 216.732 109.073 216.562 109.073C216.393 109.073 216.256 109.279 216.256 109.533C216.256 109.787 216.393 109.992 216.562 109.992Z" fill="#E77C07"/>
<path d="M218.401 107.541C218.57 107.541 218.707 107.336 218.707 107.082C218.707 106.828 218.57 106.622 218.401 106.622C218.231 106.622 218.094 106.828 218.094 107.082C218.094 107.336 218.231 107.541 218.401 107.541Z" fill="#E77C07"/>
<path d="M218.094 110.912C218.263 110.912 218.401 110.706 218.401 110.452C218.401 110.198 218.263 109.992 218.094 109.992C217.925 109.992 217.788 110.198 217.788 110.452C217.788 110.706 217.925 110.912 218.094 110.912Z" fill="#E77C07"/>
<path d="M214.418 109.38C214.587 109.38 214.724 109.174 214.724 108.92C214.724 108.666 214.587 108.461 214.418 108.461C214.248 108.461 214.111 108.666 214.111 108.92C214.111 109.174 214.248 109.38 214.418 109.38Z" fill="#E77C07"/>
<path d="M192.051 113.363C194.759 113.363 196.954 111.168 196.954 108.461C196.954 105.753 194.759 103.558 192.051 103.558C189.344 103.558 187.149 105.753 187.149 108.461C187.149 111.168 189.344 113.363 192.051 113.363Z" fill="#E77C07"/>
<path opacity="0.2" d="M195.728 108.767C195.728 109.742 195.341 110.677 194.651 111.367C193.962 112.056 193.027 112.443 192.051 112.443C191.076 112.443 190.141 112.056 189.452 111.367C188.762 110.677 188.375 109.742 188.375 108.767" fill="black"/>
<path opacity="0.2" d="M188.375 108.154C188.375 107.179 188.762 106.244 189.452 105.554C190.141 104.865 191.076 104.478 192.051 104.478C193.027 104.478 193.962 104.865 194.651 105.554C195.341 106.244 195.728 107.179 195.728 108.154" fill="black"/>
<path d="M190.213 107.235C190.382 107.235 190.52 107.029 190.52 106.775C190.52 106.522 190.382 106.316 190.213 106.316C190.044 106.316 189.907 106.522 189.907 106.775C189.907 107.029 190.044 107.235 190.213 107.235Z" fill="#E77C07"/>
<path d="M192.051 106.622C192.221 106.622 192.358 106.416 192.358 106.163C192.358 105.909 192.221 105.703 192.051 105.703C191.882 105.703 191.745 105.909 191.745 106.163C191.745 106.416 191.882 106.622 192.051 106.622Z" fill="#E77C07"/>
<path d="M192.051 110.605C192.221 110.605 192.358 110.399 192.358 110.146C192.358 109.892 192.221 109.686 192.051 109.686C191.882 109.686 191.745 109.892 191.745 110.146C191.745 110.399 191.882 110.605 192.051 110.605Z" fill="#E77C07"/>
<path d="M193.89 108.154C194.059 108.154 194.196 107.948 194.196 107.695C194.196 107.441 194.059 107.235 193.89 107.235C193.721 107.235 193.583 107.441 193.583 107.695C193.583 107.948 193.721 108.154 193.89 108.154Z" fill="#E77C07"/>
<path d="M193.583 111.524C193.753 111.524 193.89 111.319 193.89 111.065C193.89 110.811 193.753 110.605 193.583 110.605C193.414 110.605 193.277 110.811 193.277 111.065C193.277 111.319 193.414 111.524 193.583 111.524Z" fill="#E77C07"/>
<path d="M189.907 109.992C190.076 109.992 190.213 109.787 190.213 109.533C190.213 109.279 190.076 109.073 189.907 109.073C189.738 109.073 189.6 109.279 189.6 109.533C189.6 109.787 189.738 109.992 189.907 109.992Z" fill="#E77C07"/>
<path d="M203.081 115.507C205.789 115.507 207.984 113.313 207.984 110.605C207.984 107.898 205.789 105.703 203.081 105.703C200.374 105.703 198.179 107.898 198.179 110.605C198.179 113.313 200.374 115.507 203.081 115.507Z" fill="#E77C07"/>
<path opacity="0.2" d="M206.758 110.912C206.758 111.394 206.663 111.873 206.478 112.319C206.293 112.765 206.023 113.17 205.681 113.511C205.34 113.853 204.934 114.124 204.488 114.308C204.042 114.493 203.564 114.588 203.081 114.588C202.599 114.588 202.12 114.493 201.674 114.308C201.228 114.124 200.823 113.853 200.482 113.511C200.14 113.17 199.869 112.765 199.685 112.319C199.5 111.873 199.405 111.394 199.405 110.912" fill="black"/>
<path opacity="0.2" d="M199.405 110.299C199.405 109.816 199.5 109.338 199.685 108.892C199.869 108.446 200.14 108.04 200.482 107.699C200.823 107.358 201.228 107.087 201.674 106.902C202.12 106.717 202.599 106.622 203.081 106.622C203.564 106.622 204.042 106.717 204.488 106.902C204.934 107.087 205.34 107.358 205.681 107.699C206.023 108.04 206.293 108.446 206.478 108.892C206.663 109.338 206.758 109.816 206.758 110.299" fill="black"/>
<path d="M201.243 109.38C201.412 109.38 201.549 109.174 201.549 108.92C201.549 108.666 201.412 108.461 201.243 108.461C201.074 108.461 200.937 108.666 200.937 108.92C200.937 109.174 201.074 109.38 201.243 109.38Z" fill="#E77C07"/>
<path d="M203.081 108.767C203.251 108.767 203.388 108.561 203.388 108.307C203.388 108.054 203.251 107.848 203.081 107.848C202.912 107.848 202.775 108.054 202.775 108.307C202.775 108.561 202.912 108.767 203.081 108.767Z" fill="#E77C07"/>
<path d="M203.081 112.75C203.251 112.75 203.388 112.544 203.388 112.29C203.388 112.037 203.251 111.831 203.081 111.831C202.912 111.831 202.775 112.037 202.775 112.29C202.775 112.544 202.912 112.75 203.081 112.75Z" fill="#E77C07"/>
<path d="M204.92 110.299C205.089 110.299 205.226 110.093 205.226 109.839C205.226 109.585 205.089 109.38 204.92 109.38C204.75 109.38 204.613 109.585 204.613 109.839C204.613 110.093 204.75 110.299 204.92 110.299Z" fill="#E77C07"/>
<path d="M204.613 113.669C204.782 113.669 204.92 113.463 204.92 113.209C204.92 112.956 204.782 112.75 204.613 112.75C204.444 112.75 204.307 112.956 204.307 113.209C204.307 113.463 204.444 113.669 204.613 113.669Z" fill="#E77C07"/>
<path d="M200.937 112.137C201.106 112.137 201.243 111.931 201.243 111.678C201.243 111.424 201.106 111.218 200.937 111.218C200.767 111.218 200.63 111.424 200.63 111.678C200.63 111.931 200.767 112.137 200.937 112.137Z" fill="#E77C07"/>
<path d="M210.741 120.716C213.448 120.716 215.643 118.521 215.643 115.814C215.643 113.106 213.448 110.912 210.741 110.912C208.034 110.912 205.839 113.106 205.839 115.814C205.839 118.521 208.034 120.716 210.741 120.716Z" fill="#FF6584"/>
<path opacity="0.2" d="M214.418 116.12C214.418 117.095 214.03 118.03 213.341 118.72C212.651 119.409 211.716 119.797 210.741 119.797C209.766 119.797 208.831 119.409 208.141 118.72C207.452 118.03 207.064 117.095 207.064 116.12" fill="black"/>
<path opacity="0.2" d="M207.064 115.507C207.064 114.532 207.452 113.597 208.141 112.908C208.831 112.218 209.766 111.831 210.741 111.831C211.716 111.831 212.651 112.218 213.341 112.908C214.03 113.597 214.418 114.532 214.418 115.507" fill="black"/>
<path d="M208.903 114.588C209.072 114.588 209.209 114.382 209.209 114.129C209.209 113.875 209.072 113.669 208.903 113.669C208.733 113.669 208.596 113.875 208.596 114.129C208.596 114.382 208.733 114.588 208.903 114.588Z" fill="#FF6584"/>
<path d="M210.741 113.975C210.91 113.975 211.047 113.77 211.047 113.516C211.047 113.262 210.91 113.056 210.741 113.056C210.572 113.056 210.435 113.262 210.435 113.516C210.435 113.77 210.572 113.975 210.741 113.975Z" fill="#FF6584"/>
<path d="M210.741 117.958C210.91 117.958 211.047 117.753 211.047 117.499C211.047 117.245 210.91 117.039 210.741 117.039C210.572 117.039 210.435 117.245 210.435 117.499C210.435 117.753 210.572 117.958 210.741 117.958Z" fill="#FF6584"/>
<path d="M212.579 115.507C212.748 115.507 212.886 115.302 212.886 115.048C212.886 114.794 212.748 114.588 212.579 114.588C212.41 114.588 212.273 114.794 212.273 115.048C212.273 115.302 212.41 115.507 212.579 115.507Z" fill="#FF6584"/>
<path d="M212.273 118.878C212.442 118.878 212.579 118.672 212.579 118.418C212.579 118.164 212.442 117.958 212.273 117.958C212.104 117.958 211.967 118.164 211.967 118.418C211.967 118.672 212.104 118.878 212.273 118.878Z" fill="#FF6584"/>
<path d="M208.596 117.346C208.766 117.346 208.903 117.14 208.903 116.886C208.903 116.632 208.766 116.427 208.596 116.427C208.427 116.427 208.29 116.632 208.29 116.886C208.29 117.14 208.427 117.346 208.596 117.346Z" fill="#FF6584"/>
<path d="M147.699 98.4236C148.417 98.4236 148.999 97.8418 148.999 97.1242C148.999 96.4066 148.417 95.8248 147.699 95.8248C146.982 95.8248 146.4 96.4066 146.4 97.1242C146.4 97.8418 146.982 98.4236 147.699 98.4236Z" fill="#3F3D56"/>
<path d="M183.019 144.288L151.812 135.634L153.008 131.194L184.214 139.848L183.019 144.288Z" fill="#F9A825"/>
<path d="M178.444 142.804C167.758 144.85 156.78 144.85 146.094 142.804V138.201C156.804 139.977 167.734 139.977 178.444 138.201V142.804Z" fill="#F9A825"/>
<path d="M181.77 128.996C171.083 131.041 160.106 131.041 149.419 128.996V124.393C160.13 126.168 171.059 126.168 181.77 124.393V128.996Z" fill="#F9A825"/>
<path d="M192.956 134.519C182.27 136.565 171.292 136.565 160.606 134.519V129.916C171.316 131.691 182.246 131.691 192.956 129.916V134.519Z" fill="#F9A825"/>
<path d="M195.677 139.736C184.991 141.782 174.013 141.782 163.327 139.736V135.133C174.037 136.908 184.967 136.908 195.677 135.133V139.736Z" fill="#F9A825"/>
<path d="M205.164 146.552L173.248 151.913L172.507 147.372L204.424 142.011L205.164 146.552Z" fill="#F9A825"/>
<path d="M200.397 147.142C191.548 153.521 181.575 158.172 171.001 160.852L169.108 156.67C179.589 153.735 189.519 149.104 198.503 142.96L200.397 147.142Z" fill="#F9A825"/>
<path d="M197.738 133.186C188.889 139.564 178.916 144.215 168.342 146.896L166.449 142.713C176.93 139.778 186.86 135.147 195.844 129.003L197.738 133.186Z" fill="#F9A825"/>
<path d="M210.175 133.464C201.326 139.842 191.353 144.494 180.779 147.174L178.886 142.991C189.367 140.056 199.297 135.425 208.281 129.281L210.175 133.464Z" fill="#F9A825"/>
<path d="M214.793 137.051C205.945 143.429 195.972 148.081 185.398 150.761L183.504 146.578C193.986 143.643 203.915 139.012 212.9 132.868L214.793 137.051Z" fill="#F9A825"/>
<path d="M176.119 128.069H174.587V129.601H176.119V128.069Z" fill="#00BF71"/>
<path d="M180.715 154.725H179.183V156.257H180.715V154.725Z" fill="#00BF71"/>
<path d="M156.204 128.069H154.672V129.601H156.204V128.069Z" fill="#00BF71"/>
<path d="M191.745 147.065H190.213V148.597H191.745V147.065Z" fill="#00BF71"/>
<path d="M192.664 138.18H191.132V139.712H192.664V138.18Z" fill="#00BF71"/>
<path d="M167.393 133.986L165.619 132.781L164.93 133.796L166.705 135L167.393 133.986Z" fill="#00BF71"/>
<path d="M185.47 137.356L183.695 136.152L183.007 137.166L184.782 138.37L185.47 137.356Z" fill="#00BF71"/>
<path d="M163.41 143.177L161.635 141.973L160.947 142.987L162.722 144.191L163.41 143.177Z" fill="#00BF71"/>
<path d="M174.646 143.088L175.85 141.313L174.836 140.625L173.632 142.4L174.646 143.088Z" fill="#00BF71"/>
<path d="M182.918 145.233L184.122 143.458L183.108 142.77L181.904 144.545L182.918 145.233Z" fill="#00BF71"/>
<path d="M204.98 137.879L206.184 136.104L205.17 135.416L203.966 137.191L204.98 137.879Z" fill="#00BF71"/>
<path d="M350 190.469H0V191.353H350V190.469Z" fill="#3F3D56"/>
</g>
<defs>
<clipPath id="clip0_41_3">
<rect width="350" height="191.353" fill="white"/>
</clipPath>
</defs>
</svg>
