<svg width="100" height="84" viewBox="0 0 100 84" fill="none" xmlns="http://www.w3.org/2000/svg">
<g clip-path="url(#clip0_51_29)">
<path d="M66.1408 67.9671H6.41089V0H66.1408V67.9671Z" fill="white"/>
<path d="M66.1408 67.9671H6.41089V0H66.1408V67.9671ZM7.286 67.1554H65.2657V0.811741H7.286V67.1554Z" fill="#E6E6E6"/>
<path d="M66.1653 0H6.51172V8.69459H66.1653V0Z" fill="#E77C07"/>
<path d="M15.0642 21.5865C17.8692 21.5865 20.143 19.3126 20.143 16.5077C20.143 13.7027 17.8692 11.4288 15.0642 11.4288C12.2592 11.4288 9.98535 13.7027 9.98535 16.5077C9.98535 19.3126 12.2592 21.5865 15.0642 21.5865Z" fill="#E6E6E6"/>
<path d="M41.6235 12.9226H24.2261V14.4164H41.6235V12.9226Z" fill="#E6E6E6"/>
<path d="M62.5663 16.5076H24.2261V18.0013H62.5663V16.5076Z" fill="#E6E6E6"/>
<path d="M62.5663 20.0927H24.2261V21.5864H62.5663V20.0927Z" fill="#E6E6E6"/>
<path d="M15.0642 63.1585C17.8692 63.1585 20.143 60.8847 20.143 58.0797C20.143 55.2747 17.8692 53.0009 15.0642 53.0009C12.2592 53.0009 9.98535 55.2747 9.98535 58.0797C9.98535 60.8847 12.2592 63.1585 15.0642 63.1585Z" fill="#E6E6E6"/>
<path d="M41.6235 54.4946H24.2261V55.9884H41.6235V54.4946Z" fill="#E6E6E6"/>
<path d="M62.5663 58.0797H24.2261V59.5735H62.5663V58.0797Z" fill="#E6E6E6"/>
<path d="M62.5663 61.6648H24.2261V63.1586H62.5663V61.6648Z" fill="#E6E6E6"/>
<path d="M15.9108 2.22156H8.34229V3.31699H15.9108V2.22156Z" fill="white"/>
<path d="M15.9108 4.11365H8.34229V5.20908H15.9108V4.11365Z" fill="white"/>
<path d="M15.9108 6.00574H8.34229V7.10117H15.9108V6.00574Z" fill="white"/>
<path d="M72.5517 46.9582H0V27.629H72.5517V46.9582Z" fill="white"/>
<path d="M72.5517 46.9582H0V27.629H72.5517V46.9582ZM0.875113 46.0831H71.6766V28.5041H0.875113V46.0831Z" fill="#CCCCCC"/>
<path d="M9.00323 42.2871C11.7764 42.2871 14.0245 40.039 14.0245 37.2658C14.0245 34.4926 11.7764 32.2445 9.00323 32.2445C6.23005 32.2445 3.98193 34.4926 3.98193 37.2658C3.98193 40.039 6.23005 42.2871 9.00323 42.2871Z" fill="#E77C07"/>
<path d="M40.3125 33.0321H19.5381V34.509H40.3125V33.0321Z" fill="#3F3D56"/>
<path d="M65.3205 36.5765H19.5381V38.0534H65.3205V36.5765Z" fill="#3F3D56"/>
<path d="M65.3205 40.121H19.5381V41.5978H65.3205V40.121Z" fill="#3F3D56"/>
<path d="M84.1581 52.0534C84.222 52.0279 84.2878 52.0075 84.355 51.9923L86.5702 46.2368L85.6302 45.0701L87.2055 43.4214C87.6606 44.0912 89.912 45.5024 89.2269 46.5086L85.7888 52.6249C85.8852 52.7973 85.9413 52.9894 85.9528 53.1865C85.9642 53.3837 85.9309 53.581 85.8552 53.7634C85.7795 53.9459 85.6634 54.1088 85.5156 54.2399C85.3679 54.371 85.1924 54.4669 85.0022 54.5204C83.4675 54.9805 82.6648 52.6192 84.1581 52.0534Z" fill="#A0616A"/>
<path d="M86.2546 46.212C85.8572 46.3266 84.3564 43.9929 84.1056 43.7899C83.8067 43.5072 83.632 43.1175 83.62 42.7062C83.608 42.2949 83.7596 41.8957 84.0415 41.596C84.3235 41.2963 84.7127 41.1206 85.1239 41.1075C85.5352 41.0944 85.9348 41.2448 86.2353 41.5259L88.5437 43.1417C88.6091 43.1882 88.6638 43.2481 88.7042 43.3175C88.7445 43.3868 88.7696 43.464 88.7777 43.5438C88.7858 43.6237 88.7767 43.7043 88.7511 43.7803C88.7255 43.8564 88.684 43.9261 88.6292 43.9848C88.3532 44.1725 86.6469 46.3553 86.2546 46.212Z" fill="#E77C07"/>
<path d="M87.0397 81.2235L85.2516 81.2234L84.9844 74.3263L87.04 74.3264L87.0397 81.2235Z" fill="#A0616A"/>
<path d="M87.4957 82.9567L81.73 82.9565C81.676 79.9047 85.5763 80.7367 87.4958 80.6396L87.4957 82.9567Z" fill="#2F2E41"/>
<path d="M92.8634 80.6348L91.0872 80.8408L89.4473 74.0878L92.0688 73.7837L92.8634 80.6348Z" fill="#A0616A"/>
<path d="M93.5163 82.304L87.7891 82.9684C87.3837 79.9432 91.3538 80.32 93.2494 80.0023L93.5163 82.304Z" fill="#2F2E41"/>
<path d="M87.3596 79.5861H84.4195V68.5043L82.7026 59.2531L80.3538 51.0332L85.8638 48.3527L86.9144 50.0036C87.077 50.1517 89.7095 52.5877 89.9935 55.0015C90.2829 57.4617 87.4872 78.6231 87.368 79.5227L87.3596 79.5861Z" fill="#2F2E41"/>
<path d="M80.553 52.7548L79.6453 48.7761C79.4325 48.5714 77.4177 46.5061 79.6478 43.8668L80.8229 40.8031L84.2655 39.7367L85.6115 40.7787C86.1537 41.1979 86.5845 41.7439 86.866 42.3686C87.1476 42.9934 87.2712 43.6778 87.2261 44.3616L86.8585 49.9906L80.553 52.7548Z" fill="#2F2E41"/>
<path d="M83.5007 33.1373C87.0482 35.156 84.1359 40.4824 80.5222 38.5857C76.9747 36.5671 79.8871 31.2407 83.5007 33.1373Z" fill="#A0616A"/>
<path d="M73.7417 40.3142C73.753 40.3881 73.7585 40.4628 73.758 40.5376L79.3078 44.2963L80.7738 43.5876L82.1326 45.6604C81.3117 45.9776 79.2647 48.0148 78.3676 47.0424L72.7362 41.9004C72.53 41.9601 72.3129 41.9723 72.1013 41.936C71.8897 41.8998 71.6891 41.816 71.5145 41.6911C71.3399 41.5661 71.196 41.4032 71.0934 41.2146C70.9909 41.026 70.9324 40.8166 70.9225 40.6021C70.8122 38.8643 73.5094 38.5942 73.7417 40.3142Z" fill="#A0616A"/>
<path d="M79.4113 43.968C79.3876 43.5192 82.2269 42.5033 82.5034 42.2876C82.8762 42.0406 83.3317 41.9514 83.77 42.0397C84.2084 42.128 84.5939 42.3865 84.8419 42.7586C85.09 43.1306 85.1804 43.5859 85.0933 44.0245C85.0063 44.4631 84.7488 44.8493 84.3775 45.0984L82.0999 47.1456C82.0346 47.2035 81.9577 47.2467 81.8744 47.2724C81.7911 47.2981 81.7032 47.3057 81.6167 47.2946C81.5302 47.2836 81.447 47.2542 81.3728 47.2084C81.2986 47.1627 81.235 47.1016 81.1863 47.0292C81.0554 46.6908 79.1633 44.3483 79.4113 43.968Z" fill="#E77C07"/>
<path d="M89.7133 77.389L86.0647 68.2494L88.4955 64.7551L93.8389 77.0749L89.7133 77.389Z" fill="#2F2E41"/>
<path d="M99.854 83.1357H75.7884C75.7497 83.1357 75.7127 83.1203 75.6853 83.093C75.6579 83.0656 75.6426 83.0285 75.6426 82.9898C75.6426 82.9512 75.6579 82.9141 75.6853 82.8867C75.7127 82.8594 75.7497 82.844 75.7884 82.844H99.854C99.8927 82.844 99.9298 82.8594 99.9572 82.8867C99.9845 82.9141 99.9999 82.9512 99.9999 82.9898C99.9999 83.0285 99.9845 83.0656 99.9572 83.093C99.9298 83.1203 99.8927 83.1357 99.854 83.1357Z" fill="#CCCCCC"/>
<path d="M93.0136 35.7893C91.8285 36.0079 90.5885 35.6465 89.5729 34.9976C88.5574 34.3488 87.7414 33.4315 87.0174 32.4682C86.6097 31.9259 86.2155 31.3539 85.6607 30.9636C85.1058 30.5733 84.3382 30.4002 83.7454 30.7302C83.2229 31.0211 82.9926 31.7848 83.2993 32.2628C82.4761 32.0565 81.6031 32.1185 80.7711 32.2945C79.9697 32.4641 79.1553 32.7567 78.6006 33.3596C78.046 33.9624 77.8361 34.942 78.3048 35.6139L79.0003 35.7338C80.27 35.4442 80.8567 35.5728 82.1263 35.8624C82.0834 35.6379 82.436 35.5184 82.6143 35.6615C82.7926 35.8046 82.7285 36.0893 82.8436 36.2868C83.3342 37.1281 83.3349 38.1605 83.0841 38.9426C84.3421 38.4201 85.2641 37.0059 85.5217 35.6683C85.649 35.0842 85.602 34.4756 85.3867 33.9179C85.283 33.6736 85.1408 33.4476 84.9655 33.2483C85.4371 33.3867 85.8722 33.6277 86.2397 33.9539C86.8874 34.5173 87.3557 35.2527 87.8735 35.9373C88.3913 36.622 88.9958 37.2854 89.7914 37.6078C91.0113 38.1021 92.4603 37.6697 93.4617 36.8155C94.2432 36.149 94.7955 35.2654 95.2354 34.3298C94.9819 34.7096 94.6545 35.0346 94.2728 35.2853C93.8911 35.5361 93.4629 35.7075 93.0136 35.7893Z" fill="#2F2E41"/>
<path d="M95.2354 34.3297C95.3939 34.0842 95.5114 33.8144 95.5831 33.531C95.4746 33.799 95.3592 34.0663 95.2354 34.3297Z" fill="#2F2E41"/>
</g>
<defs>
<clipPath id="clip0_51_29">
<rect width="100" height="83.1357" fill="white"/>
</clipPath>
</defs>
</svg>
