<svg width="130" height="97" viewBox="0 0 130 97" fill="none" xmlns="http://www.w3.org/2000/svg">
<g clip-path="url(#clip0_54_144)">
<path d="M70.731 9.87808C72.4262 9.87808 73.8004 8.50386 73.8004 6.80867C73.8004 5.11348 72.4262 3.73926 70.731 3.73926C69.0358 3.73926 67.6616 5.11348 67.6616 6.80867C67.6616 8.50386 69.0358 9.87808 70.731 9.87808Z" fill="#E77C07"/>
<path d="M70.4271 7.97948C70.358 7.9796 70.2908 7.95726 70.2356 7.91583L70.2322 7.91326L69.5108 7.36145C69.3703 7.25373 69.3437 7.05251 69.4514 6.912C69.5591 6.7715 69.7604 6.74491 69.9009 6.85263L70.3681 7.21093L71.4722 5.77051C71.5799 5.63007 71.781 5.6035 71.9215 5.71117L71.9147 5.72075L71.9217 5.71124C72.062 5.81906 72.0885 6.02009 71.981 6.16059L70.6823 7.85408C70.6214 7.93317 70.5272 7.97938 70.4274 7.97909L70.4271 7.97948Z" fill="white"/>
<path d="M70.731 30.6282C72.4262 30.6282 73.8004 29.254 73.8004 27.5588C73.8004 25.8636 72.4262 24.4894 70.731 24.4894C69.0358 24.4894 67.6616 25.8636 67.6616 27.5588C67.6616 29.254 69.0358 30.6282 70.731 30.6282Z" fill="#E77C07"/>
<path d="M70.4271 28.7297C70.358 28.7298 70.2908 28.7075 70.2356 28.6661L70.2322 28.6635L69.5108 28.1117C69.3703 28.004 69.3437 27.8027 69.4514 27.6622C69.5592 27.5217 69.7604 27.4952 69.9009 27.6029L70.3681 27.9612L71.4722 26.5207C71.5799 26.3803 71.781 26.3537 71.9215 26.4614L71.9147 26.471L71.9217 26.4615C72.062 26.5693 72.0885 26.7703 71.981 26.9108L70.6823 28.6043C70.6214 28.6834 70.5272 28.7296 70.4274 28.7293L70.4271 28.7297Z" fill="white"/>
<path d="M78.4396 59.8122C78.4019 58.8509 79.1507 58.041 80.1121 58.0034C80.2146 57.9993 80.3172 58.0044 80.4188 58.0184L83.23 52.5031L84.8184 55.3004L81.9054 60.1091C81.7098 61.0564 80.7833 61.6658 79.836 61.4703C79.0434 61.3066 78.466 60.6212 78.4396 59.8122Z" fill="#FFB7B7"/>
<path d="M91.5455 94.542L89.3393 94.5418L88.2898 86.0325L91.5458 86.0326L91.5455 94.542Z" fill="#FFB7B7"/>
<path d="M92.1081 96.6805L84.9946 96.6802V96.5903C84.9947 95.0612 86.2343 93.8216 87.7634 93.8215H87.7636L92.1083 93.8217L92.1081 96.6805Z" fill="#2F2E41"/>
<path d="M103.505 94.542L101.299 94.5418L100.249 86.0325L103.505 86.0326L103.505 94.542Z" fill="#FFB7B7"/>
<path d="M104.068 96.6805L96.9541 96.6802V96.5903C96.9542 95.0612 98.1938 93.8216 99.7229 93.8215H99.7231L104.068 93.8217L104.068 96.6805Z" fill="#2F2E41"/>
<path d="M81.8281 55.0121L80.865 56.6172C80.865 56.6172 82.4701 56.6172 82.7912 59.0249L84.0753 57.4198L81.8281 55.0121Z" fill="#E5E5E5"/>
<path d="M98.6819 51.6412C98.6819 51.6412 101.25 58.3828 101.732 62.5562C102.213 66.7295 103.016 77.805 103.016 77.805L104.621 92.0907L100.127 92.7328L98.2004 78.2865L93.8665 64.0008L92.9034 78.2865L92.1009 91.2881L87.9275 91.4486L87.6065 77.9655L85.8408 60.7905L86.8039 52.6043L98.6819 51.6412Z" fill="#2F2E41"/>
<path d="M95.5519 31.1758L97.1571 32.2992L99.2438 53.3266L86.2422 53.6476L88.0079 39.0409L89.613 34.8675L90.7716 33.3357L95.5519 31.1758Z" fill="#E5E5E5"/>
<path d="M95.873 46.264L96.3642 31.7443C96.3642 31.7443 97.3177 31.8178 97.6387 32.2993C97.9597 32.7809 103.257 33.744 103.257 33.744L102.294 48.6717C102.294 48.6717 106.306 60.5498 104.862 61.1918C103.417 61.8339 100.849 61.6734 100.849 61.6734L95.873 46.264Z" fill="#2F2E41"/>
<path d="M88.0881 44.4182L89.7909 34.6324L86.0014 37.1951L86.9645 44.2577L86.1619 49.0731C86.1619 49.0731 83.1122 62.3957 84.0752 62.8773C85.0383 63.3588 86.1619 62.8773 86.1619 62.8773L88.0881 49.3941V44.4182Z" fill="#2F2E41"/>
<path d="M87.125 36.874L86.0014 37.1951L85.5199 43.6156L84.7173 49.2336L80.865 56.1357C80.865 56.1357 82.7912 54.8516 83.5937 58.5434L87.8363 51.157L87.125 36.874Z" fill="#2F2E41"/>
<path d="M95.856 58.4958C96.0057 57.5454 96.8974 56.8963 97.8478 57.046C97.9491 57.062 98.0489 57.0869 98.1458 57.1204L101.974 52.2556L102.989 55.3081L99.1982 59.4598C98.8225 60.3511 97.7954 60.7691 96.904 60.3934C96.1582 60.079 95.7249 59.2945 95.856 58.4958Z" fill="#FFB7B7"/>
<path d="M102.374 56.7777L100.929 58.5434L99.0032 55.1726L99.8056 53.728L102.374 56.7777Z" fill="#E5E5E5"/>
<path d="M102.053 34.3058L103.337 33.6637C103.337 33.6637 104.3 34.9478 104.46 36.0714C104.621 37.195 105.423 38.6396 105.423 39.4422C105.423 40.2448 107.671 47.7889 107.671 47.7889L102.534 58.2223C102.534 58.2223 101.411 54.37 99.0029 54.049L103.016 48.431L100.769 44.4181L102.053 34.3058Z" fill="#2F2E41"/>
<path d="M129.838 96.7794H68.0737C67.9842 96.7794 67.9116 96.7068 67.9116 96.6173C67.9116 96.5278 67.9842 96.4552 68.0737 96.4552H129.838C129.927 96.4552 130 96.5278 130 96.6173C130 96.7068 129.927 96.7794 129.838 96.7794Z" fill="#CBCBCB"/>
<path d="M59.1704 34.3674H0V20.7501H59.1704V34.3674Z" fill="white"/>
<path d="M8.53967 25.2527C8.22126 25.2527 7.96313 25.5108 7.96313 25.8292C7.96313 26.1476 8.22126 26.4058 8.53967 26.4058H50.6332C50.9516 26.4058 51.2098 26.1476 51.2098 25.8292C51.2098 25.5108 50.9516 25.2527 50.6332 25.2527H8.53967Z" fill="#E77C07"/>
<path d="M8.53966 28.7119C8.22125 28.7112 7.96258 28.9688 7.96192 29.2872C7.96124 29.6056 8.21882 29.8643 8.53723 29.865H35.1492C35.4676 29.865 35.7257 29.6069 35.7257 29.2884C35.7257 28.97 35.4676 28.7119 35.1492 28.7119L8.53966 28.7119Z" fill="#E77C07"/>
<path d="M59.1704 34.3674H0V20.7501H59.1704V34.3674ZM0.972664 33.3948H58.1977V21.7228H0.972664V33.3948Z" fill="#E5E5E5"/>
<path d="M59.1704 55.1177H0V41.5004H59.1704V55.1177Z" fill="white"/>
<path d="M8.53967 46.0028C8.22126 46.0028 7.96313 46.2609 7.96313 46.5793C7.96313 46.8978 8.22126 47.1559 8.53967 47.1559H50.6332C50.9516 47.1559 51.2098 46.8978 51.2098 46.5793C51.2098 46.2609 50.9516 46.0028 50.6332 46.0028H8.53967Z" fill="#E6E6E6"/>
<path d="M8.53966 49.462C8.22125 49.4614 7.96259 49.7189 7.96192 50.0374C7.96124 50.3558 8.21882 50.6144 8.53723 50.6151H35.1492C35.4676 50.6151 35.7258 50.357 35.7258 50.0386C35.7258 49.7202 35.4676 49.462 35.1492 49.462H8.53966Z" fill="#E6E6E6"/>
<path d="M59.1704 55.1177H0V41.5004H59.1704V55.1177ZM0.972664 54.145H58.1977V42.473H0.972664V54.145Z" fill="#E5E5E5"/>
<path d="M59.6567 13.6173H0.486328V0H59.6567V13.6173Z" fill="white"/>
<path d="M9.02592 4.50256C8.70751 4.50315 8.44986 4.76174 8.45044 5.08014C8.45102 5.39773 8.70833 5.65505 9.02592 5.65563H51.1195C51.4379 5.65504 51.6956 5.39645 51.695 5.07805C51.6944 4.76046 51.4371 4.50314 51.1195 4.50256H9.02592Z" fill="#E77C07"/>
<path d="M9.02599 7.96167C8.70758 7.961 8.44891 8.21858 8.44824 8.53699C8.44757 8.8554 8.70515 9.11407 9.02356 9.11473H35.6355C35.9539 9.11532 36.2125 8.85766 36.2131 8.53925C36.2137 8.22084 35.9561 7.96225 35.6376 7.96167C35.6369 7.96167 35.6362 7.96167 35.6355 7.96167L9.02599 7.96167Z" fill="#E77C07"/>
<path d="M59.6567 13.6173H0.486328V0H59.6567V13.6173ZM1.45899 12.6446H58.6841V0.972664H1.45899V12.6446Z" fill="#E5E5E5"/>
<path d="M119.84 96.8543V85.1272C119.84 85.1272 124.41 93.4412 119.84 96.8543Z" fill="#F1F1F1"/>
<path d="M120.122 96.8522L111.483 88.9215C111.483 88.9215 120.699 91.1774 120.122 96.8522Z" fill="#F1F1F1"/>
<path d="M78.5125 59.4589C80.2077 59.4589 81.5819 58.0847 81.5819 56.3895C81.5819 54.6943 80.2077 53.3201 78.5125 53.3201C76.8173 53.3201 75.4431 54.6943 75.4431 56.3895C75.4431 58.0847 76.8173 59.4589 78.5125 59.4589Z" fill="#E77C07"/>
<path d="M78.2083 57.5604C78.1393 57.5605 78.0721 57.5382 78.0168 57.4968L78.0134 57.4942L77.292 56.9424C77.1515 56.8346 77.125 56.6334 77.2327 56.4929C77.3404 56.3524 77.5416 56.3258 77.6821 56.4336L78.1494 56.7919L79.2535 55.3514C79.3611 55.211 79.5623 55.1844 79.7027 55.2921L79.6959 55.3017L79.703 55.2922C79.8433 55.4 79.8698 55.601 79.7623 55.7415L78.4636 57.435C78.4027 57.5141 78.3084 57.5603 78.2086 57.56L78.2083 57.5604Z" fill="white"/>
<path d="M91.0392 31.4419C93.4658 31.4419 95.4329 29.4748 95.4329 27.0482C95.4329 24.6217 93.4658 22.6545 91.0392 22.6545C88.6126 22.6545 86.6455 24.6217 86.6455 27.0482C86.6455 29.4748 88.6126 31.4419 91.0392 31.4419Z" fill="#FFB6B6"/>
<path d="M94.8773 30.4239C94.8773 30.4239 96.1786 27.7884 96.1554 26.7823C96.1322 25.7761 95.4212 23.1869 95.1212 23.0162C94.8212 22.8454 91.5856 21.2027 90.7088 21.6966C89.8319 22.1905 88.2887 23.8799 86.6244 24.337C86.1536 24.4663 86.5646 26.8847 86.5646 26.8847L88.5123 26.603C88.5123 26.603 90.5429 24.7797 90.6307 26.0212C90.7185 27.2628 92.6016 26.7457 92.6016 26.7457L92.6247 27.7518L93.3955 27.7933L93.6077 26.7225C93.6077 26.7225 93.9541 28.9056 93.5065 30.041C93.0589 31.1764 94.8773 30.4239 94.8773 30.4239Z" fill="#2F2E41"/>
</g>
<defs>
<clipPath id="clip0_54_144">
<rect width="130" height="96.8542" fill="white"/>
</clipPath>
</defs>
</svg>
